<svg xmlns="http://www.w3.org/2000/svg" viewBox="0 0 48 48">
  <!-- Estructura principal de la computadora - estilo pixel art -->
  <rect x="8" y="6" width="32" height="36" fill="#111111"/>
  
  <!-- Marco metálico exterior -->
  <rect x="8" y="6" width="32" height="36" fill="none" stroke="#333333" stroke-width="1"/>
  
  <!-- Pantalla principal -->
  <rect x="12" y="10" width="24" height="14" fill="#050505" stroke="#440000" stroke-width="1"/>
  
  <!-- Cara malévola en la pantalla -->
  <!-- Ojos rojos -->
  <rect x="16" y="14" width="4" height="3" fill="#990000">
    <animate attributeName="fill" values="#990000;#ff0000;#990000" dur="1.5s" repeatCount="indefinite"/>
  </rect>
  <rect x="28" y="14" width="4" height="3" fill="#990000">
    <animate attributeName="fill" values="#990000;#ff0000;#990000" dur="1.5s" repeatCount="indefinite"/>
  </rect>
  
  <!-- Boca en forma de línea de comando pixelada -->
  <rect x="16" y="20" width="16" height="1" fill="#660000"/>
  <rect x="16" y="20" width="1" height="1" fill="#aa0000"/>
  <rect x="20" y="20" width="1" height="1" fill="#aa0000"/>
  <rect x="24" y="20" width="1" height="1" fill="#aa0000"/>
  <rect x="28" y="20" width="1" height="1" fill="#aa0000"/>
  <rect x="31" y="20" width="1" height="1" fill="#aa0000"/>
  
  <!-- Panel de control vintage -->
  <rect x="12" y="28" width="24" height="10" fill="#111111" stroke="#333333" stroke-width="1"/>
  
  <!-- Botones y luces del panel de control -->
  <rect x="14" y="30" width="3" height="3" fill="#222222" stroke="#444444" stroke-width="1"/>
  <rect x="19" y="30" width="3" height="3" fill="#222222" stroke="#444444" stroke-width="1"/>
  <rect x="24" y="30" width="3" height="3" fill="#222222" stroke="#444444" stroke-width="1"/>
  <rect x="29" y="30" width="3" height="3" fill="#222222" stroke="#444444" stroke-width="1"/>
  
  <!-- Luces de estado -->
  <rect x="15" y="34" width="2" height="2" fill="#990000">
    <animate attributeName="fill" values="#550000;#ff0000;#550000" dur="2s" repeatCount="indefinite"/>
  </rect>
  <rect x="20" y="34" width="2" height="2" fill="#006600">
    <animate attributeName="fill" values="#003300;#00ff00;#003300" dur="3s" repeatCount="indefinite"/>
  </rect>
  <rect x="25" y="34" width="2" height="2" fill="#990000">
    <animate attributeName="fill" values="#550000;#ff0000;#550000" dur="1.8s" repeatCount="indefinite"/>
  </rect>
  <rect x="30" y="34" width="2" height="2" fill="#006600">
    <animate attributeName="fill" values="#003300;#00ff00;#003300" dur="2.5s" repeatCount="indefinite"/>
  </rect>
  
  <!-- Detalles góticos - ornamentos en las esquinas -->
  <!-- Esquina superior izquierda -->
  <path d="M8 6 L8 9 L10 9 L10 8 L11 8 L11 6 Z" fill="#333333"/>
  <!-- Esquina superior derecha -->
  <path d="M40 6 L40 9 L38 9 L38 8 L37 8 L37 6 Z" fill="#333333"/>
  <!-- Esquina inferior izquierda -->
  <path d="M8 42 L8 39 L10 39 L10 40 L11 40 L11 42 Z" fill="#333333"/>
  <!-- Esquina inferior derecha -->
  <path d="M40 42 L40 39 L38 39 L38 40 L37 40 L37 42 Z" fill="#333333"/>
  
  <!-- Tubos/Cables vintage -->
  <rect x="6" y="16" width="2" height="16" fill="#222222" stroke="#333333" stroke-width="1"/>
  <rect x="40" y="16" width="2" height="16" fill="#222222" stroke="#333333" stroke-width="1"/>
  
  <!-- Detalles de pixel art de la época de los 80 -->
  <rect x="10" y="26" width="28" height="1" fill="#222222"/>
  <rect x="10" y="40" width="28" height="1" fill="#222222"/>
</svg>
