<svg xmlns="http://www.w3.org/2000/svg" viewBox="0 0 64 64">
  <!-- Fondo oscuro -->
  <rect width="64" height="64" fill="#000000" opacity="0.0"/>
  
  <!-- Silueta del personaje - estilo pixel art -->
  
  <!-- Cabeza -->
  <rect x="26" y="8" width="12" height="12" fill="#333333"/>
  
  <!-- Rostro - ojos desesperados -->
  <rect x="28" y="12" width="2" height="2" fill="#cccccc"/>
  <rect x="34" y="12" width="2" height="2" fill="#cccccc"/>
  
  <!-- Boca - expresión de angustia -->
  <rect x="30" y="16" width="4" height="1" fill="#660000"/>
  
  <!-- Torso -->
  <rect x="24" y="20" width="16" height="14" fill="#551111"/>
  
  <!-- Detalles del torso - ropa desgarrada -->
  <rect x="24" y="24" width="16" height="2" fill="#440000"/>
  <rect x="28" y="20" width="1" height="8" fill="#330000"/>
  <rect x="35" y="20" width="1" height="14" fill="#330000"/>
  
  <!-- Brazos -->
  <rect x="20" y="20" width="4" height="12" fill="#551111"/>
  <rect x="40" y="20" width="4" height="12" fill="#551111"/>
  
  <!-- Piernas -->
  <rect x="26" y="34" width="4" height="16" fill="#222222"/>
  <rect x="34" y="34" width="4" height="16" fill="#222222"/>
  
  <!-- Detalles de las piernas - desgarros -->
  <rect x="26" y="42" width="4" height="2" fill="#111111"/>
  <rect x="34" y="38" width="4" height="2" fill="#111111"/>

  <!-- Detalles de sombras para darle dimensión -->
  <rect x="40" y="26" width="4" height="6" fill="#440000"/>
  <rect x="20" y="26" width="4" height="6" fill="#440000"/>
  
  <!-- Cicatrices o modificaciones (estilo post-apocalíptico) -->
  <rect x="30" y="10" width="4" height="1" fill="#990000"/>
  <rect x="32" y="22" width="2" height="6" fill="#990000"/>
  
  <!-- Sombra del personaje -->
  <ellipse cx="32" cy="52" rx="10" ry="2" fill="#000000" opacity="0.5"/>
  
  <!-- Detalles de circuitos/implantes al estilo vintage -->
  <rect x="36" y="14" width="2" height="1" fill="#006600">
    <animate attributeName="fill" values="#003300;#00ff00;#003300" dur="3s" repeatCount="indefinite"/>
  </rect>
  <rect x="24" y="33" width="2" height="1" fill="#990000">
    <animate attributeName="fill" values="#550000;#ff0000;#550000" dur="2s" repeatCount="indefinite"/>
  </rect>
  
  <!-- Parpadeo ocasional para darle vida -->
  <rect x="28" y="12" width="2" height="2" fill="#cccccc">
    <animate attributeName="fill" values="#cccccc;#cccccc;#cccccc;#cccccc;#cccccc;#333333;#cccccc" dur="5s" repeatCount="indefinite"/>
  </rect>
  <rect x="34" y="12" width="2" height="2" fill="#cccccc">
    <animate attributeName="fill" values="#cccccc;#cccccc;#cccccc;#cccccc;#cccccc;#333333;#cccccc" dur="5s" repeatCount="indefinite"/>
  </rect>
  
  <!-- Elementos góticos adicionales -->
  <!-- Leve aura de desesperación -->
  <rect x="24" y="6" width="16" height="1" fill="#550000" opacity="0.7"/>
  <rect x="24" y="7" width="1" height="1" fill="#550000" opacity="0.7"/>
  <rect x="39" y="7" width="1" height="1" fill="#550000" opacity="0.7"/>
  
  <!-- Detalles adicionales de pixelado -->
  <rect x="30" y="20" width="4" height="1" fill="#660000"/>
  <rect x="24" y="30" width="16" height="1" fill="#440000"/>
  <rect x="26" y="50" width="4" height="2" fill="#111111"/>
  <rect x="34" y="50" width="4" height="2" fill="#111111"/>

  <!-- Artilugio pequeño o arma -->
  <rect x="18" y="28" width="2" height="6" fill="#444444"/>
  <rect x="17" y="30" width="1" height="4" fill="#222222"/>
  <rect x="19" y="30" width="1" height="1" fill="#990000">
    <animate attributeName="opacity" values="0.5;1;0.5" dur="2s" repeatCount="indefinite"/>
  </rect>
</svg>
